<svg xmlns="http://www.w3.org/2000/svg" width="27.748" height="27.063" viewBox="0 0 27.748 27.063">
  <path id="Path_361" data-name="Path 361" d="M150.193,107.44a13.876,13.876,0,0,0-4.385,27.039c.694.127.947-.3.947-.669,0-.33-.012-1.2-.019-2.36-3.859.839-4.673-1.859-4.673-1.859a3.675,3.675,0,0,0-1.541-2.03c-1.26-.861.1-.843.1-.843a2.913,2.913,0,0,1,2.125,1.429,2.954,2.954,0,0,0,4.038,1.153,2.966,2.966,0,0,1,.881-1.855c-3.081-.35-6.32-1.54-6.32-6.857a5.364,5.364,0,0,1,1.428-3.723,4.984,4.984,0,0,1,.136-3.672s1.164-.373,3.815,1.422a13.157,13.157,0,0,1,6.947,0c2.649-1.8,3.811-1.422,3.811-1.422a4.986,4.986,0,0,1,.139,3.672,5.354,5.354,0,0,1,1.426,3.723c0,5.33-3.244,6.5-6.335,6.846a3.313,3.313,0,0,1,.942,2.57c0,1.855-.017,3.352-.017,3.806,0,.371.25.8.954.667a13.876,13.876,0,0,0-4.395-27.038Z" transform="translate(-136.32 -107.44)" fill="#131212" fill-rule="evenodd"/>
</svg>
